<svg xmlns="http://www.w3.org/2000/svg" fill="none" class="Header-module--logo--6e63c" viewBox="0 0 100 84">
  <path fill="url(#a)" d="M84.146 10.957V0H73.171v3.043H47.56V0H36.585v3.043h-25.61V0H0v10.957h3.049v13.39H0v10.957h3.049v13.392H0v10.956h10.976V56.61h25.61v3.043H47.56V56.61h25.61v3.043h10.975V48.696h-3.048V35.304h3.048V24.348h-3.048V10.957h3.048ZM39.024 2.434h6.098v6.087h-6.098V2.435ZM2.44 8.522V2.435h6.098v6.087H2.439Zm0 24.348v-6.087h6.098v6.087H2.439Zm6.098 24.347H2.439V51.13h6.098v6.087Zm36.585 0h-6.098V51.13h6.098v6.087ZM73.17 51.74H47.56v-3.043H36.585v3.043h-25.61v-3.043H7.928V35.304h3.049V24.348h-3.05V10.957h3.05V7.912h25.61v3.043H47.56V7.913h25.61v3.043h3.048v13.392h-3.048v10.956h3.048v13.392h-3.048v3.043Zm8.536-.609v6.087H75.61V51.13h6.097Zm0-24.347v6.087H75.61v-6.087h6.097ZM75.61 8.522V2.435h6.097v6.087H75.61Z"/>
  <path fill="#177BD3" d="M43.293 25.565h-2.44v3.044h-3.048v2.434h3.049v3.044h2.439v-3.044h3.049V28.61h-3.05v-3.044Z"/>
  <path fill="#fff" fill-rule="evenodd" d="M99.116 74.37H87.31l-8.427 8.413v-28.61L99.116 74.37Z" clip-rule="evenodd"/>
  <defs>
    <linearGradient id="a" x1="84.146" x2="84.146" y1="59.652" y2="0" gradientUnits="userSpaceOnUse">
      <stop stop-color="#1D40B2"/>
      <stop offset="1" stop-color="#1680D6"/>
    </linearGradient>
  </defs>
</svg>
