<svg xmlns="http://www.w3.org/2000/svg" fill="none" viewBox="0 0 65 46">
  <path fill="url(#a)" d="M7.964 46h9.381l6.573-12.526-4.549-8.665L7.964 46ZM58.99 24.455l-5.13 9.77 6.008 11.631L65 36.046l-6.011-11.59Zm-1.559-2.991L46.48.376l-5.402 9.453 11.215 21.416 5.137-9.781ZM40.371 34.358l6.108 11.635h10.416L45.57 24.429l-5.2 9.93ZM17.814 21.832l-5.107-9.777-6.521 12.444 5.01 9.623 6.618-12.29Zm-13.153 5.63L0 36.593l5.13 9.244 4.545-8.728-5.014-9.648ZM39.345 12.64l-5.431 9.516 4.902 9.244 5.208-9.929-4.68-8.83ZM18.858 0l-4.687 9.048L32.4 43.638l4.861-9.258-9.21-17.54L18.86 0Z"/>
  <defs>
    <linearGradient id="a" x1="32.511" x2="32.511" y1=".729" y2="61.746" gradientUnits="userSpaceOnUse">
      <stop stop-color="#F2C144"/>
      <stop offset=".24" stop-color="#F1A03B"/>
      <stop offset=".57" stop-color="#F17A31"/>
      <stop offset=".84" stop-color="#F0632A"/>
      <stop offset="1" stop-color="#F05A28"/>
    </linearGradient>
  </defs>
</svg>
